<svg xmlns="http://www.w3.org/2000/svg" style="position:relative;top:22px;" width="96" height="91">
    <clipPath id="clip">
      <path d="M 0 0 h 7.75 a 45.5 45.5 0 1 1 0 91 h -7.75 v -20 h 7.75 a 25.5 25.5 0 1 0 0 -51 h -7.75 Z m 36.251 0 h 32 a 27.75 27.75 0 0 1 21.331 45.5 a 27.75 27.75 0 0 1 -21.331 45.5 h -32 a 53.6895 53.6895 0 0 0 18.7464 -20 h 13.2526 a 7.75 7.75 0 1 0 0 -15.5 h -7.75 a 53.6895 53.6895 0 0 0 0 -20 h 7.75 a 7.75 7.75 0 1 0 0 -15.5 h -13.2526 a 53.6895 53.6895 0 0 0 -18.7464 -20 Z" />
    </clipPath>
    <linearGradient id="gradient-1" gradientUnits="userSpaceOnUse" x1="7" y1="64" x2="50" y2="107">
      <stop stop-color="rgb(249, 160, 60)" offset="0" />
      <stop stop-color="rgb(247, 151, 78)" offset="1" />
    </linearGradient>
    <linearGradient id="gradient-2" gradientUnits="userSpaceOnUse" x1="2" y1="-2" x2="87" y2="84">
      <stop stop-color="rgb(242, 109, 88)" offset="0" />
      <stop stop-color="rgb(249, 160, 60)" offset="1" />
    </linearGradient>
    <linearGradient id="gradient-3" gradientUnits="userSpaceOnUse" x1="45" y1="-10" x2="108" y2="53">
      <stop stop-color="rgb(184, 78, 81)" offset="0" />
      <stop stop-color="rgb(246, 142, 72)" offset="1" />
    </linearGradient>
    <g clip-path="url(&quot;#clip&quot;)">
      <path fill="url(#gradient-1)" d="M -100 -102 m -27 0 v 300 h 300 Z" />
      <path fill="url(#gradient-3)" d="M -100 -102 m 27 0 h 300 v 300 Z" />
      <path fill="none" stroke="url(#gradient-2)" stroke-width="40" d="M -100 -102 l 300 300" />
    </g>
  </svg>