<?xml version="1.0" standalone="no"?>
<!DOCTYPE svg PUBLIC "-//W3C//DTD SVG 20010904//EN"
 "http://www.w3.org/TR/2001/REC-SVG-20010904/DTD/svg10.dtd">
<svg version="1.0" xmlns="http://www.w3.org/2000/svg"
 width="807.000000pt" height="312.000000pt" viewBox="0 0 807.000000 312.000000"
 preserveAspectRatio="xMidYMid meet">
<g transform="translate(0.000000,312.000000) scale(0.100000,-0.100000)"
fill="#1bb6eb" stroke="none">
<path d="M0 1560 l0 -1560 4035 0 4035 0 0 1560 0 1560 -4035 0 -4035 0 0
-1560z m3468 1203 c26 -16 54 -32 64 -38 123 -73 180 -110 188 -125 6 -11 10
-106 10 -214 0 -183 -1 -196 -19 -206 -12 -6 -132 -10 -320 -10 -259 0 -302 2
-315 16 -13 13 -16 46 -16 205 0 105 4 198 10 208 7 15 136 99 241 157 12 7
26 17 32 23 19 19 77 12 125 -16z m-1814 -856 c10 -18 34 -61 53 -97 19 -36
39 -69 43 -75 7 -9 32 -56 96 -175 11 -19 21 -37 25 -40 3 -3 14 -23 26 -45
18 -36 67 -126 92 -172 6 -10 22 -44 36 -75 15 -32 31 -58 36 -58 5 0 14 12
19 28 13 35 28 70 46 105 8 16 14 33 14 38 0 9 7 27 50 124 5 11 16 38 25 60
9 22 23 53 31 68 8 16 14 33 14 38 0 6 9 31 21 57 26 61 32 76 59 142 12 30
27 61 33 68 7 9 70 12 271 10 302 -3 290 2 238 -102 -16 -34 -44 -92 -62 -131
-17 -38 -37 -83 -45 -100 -7 -16 -27 -59 -43 -95 -17 -36 -33 -75 -37 -87 -3
-13 -11 -23 -16 -23 -5 0 -9 -7 -9 -16 0 -9 -6 -28 -14 -42 -13 -23 -34 -70
-91 -197 -7 -16 -34 -75 -60 -130 -25 -55 -52 -113 -60 -130 -7 -16 -34 -75
-60 -130 -25 -55 -52 -113 -59 -130 -13 -29 -21 -48 -81 -180 -15 -33 -45 -97
-66 -142 -59 -125 -95 -122 -165 13 -22 43 -58 111 -79 149 -60 110 -112 206
-137 255 -12 25 -33 62 -45 82 -12 20 -52 96 -89 167 -36 72 -68 131 -70 131
-2 0 -10 -17 -19 -37 -34 -79 -50 -111 -97 -189 -26 -45 -48 -87 -48 -93 0 -6
-4 -11 -10 -11 -5 0 -10 -5 -10 -11 0 -6 -27 -56 -60 -111 -33 -54 -60 -101
-60 -105 0 -3 -22 -42 -49 -87 -27 -44 -63 -108 -81 -141 -32 -62 -71 -105
-95 -105 -15 0 -65 56 -65 73 0 6 -11 34 -24 62 -33 67 -112 241 -141 307 -7
18 -32 71 -53 118 -22 47 -50 108 -62 135 -26 61 -37 86 -88 195 -22 47 -50
108 -62 135 -22 52 -24 57 -89 195 -42 92 -85 188 -123 280 -5 14 -16 39 -23
55 -49 112 -59 145 -46 158 9 9 85 13 287 15 l275 3 19 -23 c11 -13 19 -29 20
-36 0 -8 6 -28 14 -45 41 -91 56 -127 56 -137 0 -5 4 -18 10 -28 5 -9 26 -57
46 -107 20 -49 40 -99 44 -110 5 -11 19 -45 30 -75 24 -59 30 -76 54 -130 8
-19 18 -46 21 -59 7 -24 8 -23 26 14 11 21 19 43 19 48 0 11 121 253 186 372
24 44 55 105 70 135 15 30 30 57 33 60 3 3 19 31 34 63 49 101 84 117 121 54z
m3646 18 c214 -56 353 -197 439 -445 34 -100 41 -217 41 -740 0 -388 -3 -519
-12 -528 -9 -9 -83 -12 -270 -12 -244 0 -258 1 -268 19 -6 13 -10 189 -10 504
0 565 -1 576 -69 646 -39 40 -55 49 -105 59 -33 7 -77 12 -100 12 -51 0 -156
-22 -156 -32 0 -4 -6 -8 -14 -8 -21 0 -74 -48 -101 -90 -48 -77 -55 -152 -55
-629 0 -242 -3 -446 -6 -455 -5 -14 -38 -16 -263 -16 -187 0 -260 3 -269 12
-17 17 -17 1659 0 1676 9 9 83 12 270 12 306 0 282 12 272 -143 l-6 -102 36
52 c77 112 221 192 406 227 45 8 173 -2 240 -19z m2434 -15 c15 0 17 -5 11
-27 -4 -16 -14 -35 -23 -44 -22 -21 -62 -67 -87 -100 -11 -14 -50 -59 -86
-100 -37 -41 -80 -90 -95 -109 -16 -19 -33 -40 -39 -46 -102 -114 -235 -272
-235 -279 0 -4 129 -200 288 -437 158 -236 292 -437 297 -446 6 -9 22 -34 38
-55 31 -46 34 -62 11 -71 -9 -3 -148 -6 -310 -6 l-295 0 -30 32 c-16 18 -29
36 -29 41 0 5 -13 26 -30 47 -16 21 -30 41 -30 45 0 4 -13 24 -30 45 -16 21
-30 41 -30 45 0 4 -13 24 -29 44 -15 20 -30 41 -32 46 -3 8 -172 265 -187 285
-2 3 -32 -26 -68 -64 l-64 -69 0 -228 c0 -221 -1 -229 -21 -239 -31 -17 -494
-17 -514 0 -13 11 -15 113 -15 835 0 453 3 830 6 839 5 14 38 16 263 16 187 0
260 -3 269 -12 9 -9 12 -87 12 -290 0 -155 4 -278 9 -278 5 0 15 10 24 23 8
12 23 32 33 43 11 12 37 43 59 70 73 87 178 209 184 214 3 3 24 28 46 55 69
87 79 98 120 139 l40 41 275 -2 c151 -2 283 -3 294 -3z m-4066 -12 c9 -9 12
-209 12 -840 0 -808 0 -828 -19 -838 -29 -15 -513 -14 -529 2 -16 16 -17 1639
-2 1669 10 18 24 19 268 19 187 0 261 -3 270 -12z"/>
</g>
</svg>
